<svg width="104" height="50" viewBox="0 0 104 50" fill="none" xmlns="http://www.w3.org/2000/svg">
<path d="M62.8077 13.77C58.9769 13.77 55.872 10.6871 55.872 6.88459C55.872 3.08213 58.9761 0 62.8077 0C66.6401 0 69.7467 3.08213 69.7467 6.88459C69.7467 10.6871 66.6401 13.77 62.8085 13.77H62.8077ZM44.2339 13.77C40.4023 13.77 37.2965 10.6871 37.2965 6.88459C37.2965 3.08213 40.4023 0 44.2339 0C48.0655 0 51.172 3.08213 51.172 6.88459C51.172 10.6871 48.0655 13.77 44.2339 13.77ZM25.8812 13.7567V13.77H6.96333V13.7684L6.92554 13.77C3.09945 13.77 0 10.6878 0 6.88459C0 3.08213 3.10024 0 6.92554 0L6.96254 0.00156255V0H25.8804V0.0132817C29.5853 0.149223 32.5486 3.16963 32.5486 6.88459C32.5486 10.6011 29.5853 13.6207 25.8804 13.7567H25.8812Z" fill="#CF132C"/>
<path d="M101.045 32.6651V28.686H99.3391L97.5874 32.6651H95.1185L97.3182 28.2704C96.1955 27.7657 95.4917 26.7266 95.4917 25.3906C95.4917 23.3703 96.9442 22.0937 98.995 22.0937H103.125V32.6643H101.045V32.6651ZM101.045 23.9054H99.1005C98.1715 23.9054 97.5575 24.4836 97.5575 25.3609C97.5575 26.2227 98.1715 26.861 99.1005 26.861H101.045V23.9062V23.9054ZM90.2706 25.8805L86.1264 32.6651H84.2685V22.0944H86.35V28.8642L90.4957 22.0944H92.3513V32.6651H90.2706V25.8805ZM77.9555 28.6853H75.9062V32.6651H73.8255V22.0944H77.9562C80.0078 22.0944 81.4753 23.4601 81.4753 25.3914C81.4753 27.3212 80.022 28.686 77.9562 28.686L77.9555 28.6853ZM77.8515 23.9351H75.907V26.8305H77.8515C78.7805 26.8305 79.393 26.2664 79.393 25.3906C79.393 24.5133 78.7789 23.9343 77.8515 23.9343V23.9351ZM73.2421 49.9109L72.6139 48.0406H68.8272L68.1832 49.9109H66.0119L69.8892 39.3403H71.5204L75.4118 49.9109H73.2413H73.2421ZM70.7575 42.4576L69.4113 46.3038H72.0596L70.7583 42.4584L70.7575 42.4576ZM66.7189 32.7541C65.5663 32.7541 64.5775 32.3534 63.8296 31.5963C62.7983 30.5416 62.7826 28.9681 62.7826 27.8251V26.9501C62.7826 24.8406 63.0061 23.9945 63.8296 23.1632C64.5775 22.4054 65.5663 22.0054 66.7189 22.0054C67.8557 22.0054 68.8445 22.4062 69.5924 23.1632C70.3403 23.9211 70.6552 24.9289 70.6552 26.6375V27.7657C70.6552 29.1454 70.6394 30.5267 69.5924 31.5955C68.8445 32.3674 67.8706 32.7534 66.7189 32.7534V32.7541ZM68.0493 24.4101C67.7211 24.039 67.2574 23.8461 66.7189 23.8461C66.1796 23.8461 65.7001 24.039 65.3711 24.4101C64.8924 24.9297 64.8625 25.9258 64.8625 27.2305V27.7657C64.8625 28.8634 64.8767 29.858 65.3703 30.3486C65.7301 30.7049 66.1788 30.9127 66.7165 30.9127C67.2566 30.9127 67.7203 30.7197 68.0493 30.3486C68.4839 29.858 68.5736 29.3384 68.5736 27.186C68.5736 25.4492 68.4682 24.8695 68.0493 24.4094V24.4101ZM62.5275 42.592C62.3181 41.7458 61.7796 41.0919 60.7325 41.0919C60.1625 41.0919 59.6988 41.2997 59.3997 41.6419C58.9958 42.0872 58.8762 42.592 58.8762 44.6264C58.8762 46.66 58.9958 47.1655 59.3997 47.6109C59.6988 47.9515 60.1633 48.1593 60.7317 48.1593C61.7788 48.1593 62.3181 47.5062 62.5267 46.6593H64.6381C64.2634 48.8718 62.6936 50 60.7176 50C59.5493 50 58.592 49.5844 57.8441 48.8421C56.7655 47.7734 56.7954 46.4514 56.7954 44.6256C56.7954 42.799 56.7655 41.4771 57.8425 40.4083C58.592 39.6661 59.5493 39.2504 60.716 39.2504C62.7078 39.2504 64.2634 40.3786 64.6381 42.5912H62.5283L62.5275 42.592ZM57.9188 32.6651H55.8381V23.9351H53.0536V22.0944H60.7026V23.9351H57.9188V32.6651ZM48.2371 25.8805L44.0914 32.6651H42.2366V22.0944H44.315V28.8642L48.4615 22.0944H50.3178V32.6651H48.2371V25.8805ZM43.523 39.3403V49.9109H41.443V45.4858H37.8358V49.9109H35.7559V39.3403H37.8358V43.6607H41.443V39.3403H43.523ZM35.9212 28.686H33.8712V32.6651H31.7912V22.0944H35.9212C37.972 22.0944 39.4387 23.4601 39.4387 25.3914C39.4387 27.3212 37.987 28.686 35.9212 28.686ZM35.8165 23.9359H33.8719V26.8305H35.8165C36.7454 26.8305 37.3595 26.2664 37.3595 25.3906C37.3595 24.5133 36.7454 23.9343 35.8165 23.9343V23.9359ZM25.4766 28.686H23.4273V32.6651H21.3466V22.0944H25.4774C27.529 22.0944 28.9964 23.4601 28.9964 25.3914C28.9964 27.3212 27.5439 28.686 25.4774 28.686H25.4766ZM25.3727 23.9359H23.4281V26.8305H25.3727C26.3016 26.8305 26.9141 26.2664 26.9141 25.3906C26.9141 24.5133 26.3001 23.9343 25.3727 23.9343V23.9359ZM22.6338 49.9102H20.553V43.1263L16.4073 49.9109H14.5525V39.3403H16.6325V46.11L20.7782 39.3395H22.6346V49.9102H22.6338ZM11.2452 22.0944H18.2645V23.9351H13.326V26.4149H17.5315V28.2556H13.3252V30.8244H18.2645V32.6651H11.2452V22.0944ZM7.20502 48.7234V49.9852H5.14082V48.7226C2.0272 48.5585 0.755768 46.971 0.755768 44.224C0.755768 41.4919 2.20669 40.0677 5.14082 39.888V38.8371H7.20344V39.8919C10.1517 40.0692 11.5885 41.4935 11.5885 44.2264C11.5885 46.9733 10.3312 48.5625 7.20344 48.725L7.20502 48.7234ZM5.16994 41.6575C3.44899 41.731 2.83493 42.5771 2.83493 44.3139C2.83493 45.9913 3.48048 46.8968 5.17073 47.0015V41.6575H5.16994ZM7.19006 41.6575V47.0015C8.88267 46.8968 9.52508 45.9913 9.52508 44.3139C9.52508 42.5771 8.91101 41.731 7.18927 41.6575H7.19006ZM5.72339 32.6651H3.64502V23.9351H0.859686V22.0944H8.50715V23.9351H5.72339V32.6651ZM33.0178 41.181H30.2348V49.9109H28.1541V41.181H25.3703V39.3403H33.0178V41.181ZM54.0723 41.181H49.133V43.6607H53.3393V45.5014H49.133V48.0702H54.0723V49.9109H47.0531V39.3403H54.0723V41.181Z" fill="white"/>
</svg>
